<svg width="42" height="46" viewBox="0 0 42 46" fill="none" xmlns="http://www.w3.org/2000/svg">
<g clip-path="url(#clip0_418_1079)">
<path d="M38.2388 16.2597C38.0181 14.7788 37.6161 13.3489 37.0323 11.9706L35.906 9.74504C34.1632 6.86011 31.8054 4.63039 28.8324 3.0559C26.8022 1.97941 24.6463 1.33678 22.3648 1.12825C21.4281 1.01115 20.496 0.974299 19.5686 1.01745L17.1353 1.30109C12.989 2.13593 9.54335 4.15781 6.79877 7.36674C6.58483 7.61796 6.37065 7.87198 6.15602 8.12903C6.12965 8.16052 6.11099 8.19551 6.10002 8.2347C6.08556 8.28718 6.06386 8.33476 6.03516 8.37722C5.52936 8.97343 5.07839 9.66364 4.68224 10.4474C4.27069 11.1828 3.90814 11.9918 3.59411 12.874C3.27845 13.7391 3.03278 14.6414 2.85734 15.5802C1.93322 20.9664 3.18303 26.0715 6.58483 30.2729C7.02787 30.8202 7.33443 31.1784 7.50498 31.3483C11.1373 34.9561 14.7596 38.5744 18.3723 42.2032C18.4283 42.2605 18.5085 42.286 18.5811 42.3165C19.3447 43.0965 20.7216 43.1462 21.6698 42.7795C22.5125 42.4437 23.071 41.7604 23.836 40.9727L26.5824 38.2294L29.0807 35.7265C30.3372 34.4839 31.5894 33.2314 32.8375 31.9692C33.6037 31.1948 34.1751 30.5689 34.5519 30.0924C36.6467 27.4389 37.9035 24.3892 38.3227 20.9435C38.3829 20.4525 38.3939 19.9935 38.3559 19.5669C38.529 18.5032 38.3965 17.3222 38.2388 16.2597ZM14.3893 13.09C14.3909 13.09 14.3907 13.0921 14.3921 13.093C14.3893 13.0916 14.3865 13.0895 14.3837 13.0914C14.3853 13.0904 14.3872 13.0897 14.3893 13.09ZM13.185 31.7427C13.185 31.7427 13.1864 31.7429 13.1869 31.7432C13.1873 31.7434 13.1876 31.7434 13.188 31.7439C13.1871 31.7434 13.1862 31.7429 13.185 31.7427ZM13.6941 32.8878C13.6941 32.8878 13.695 32.8882 13.6955 32.8882C13.6971 32.8889 13.6985 32.8896 13.6999 32.8906C13.698 32.8894 13.6962 32.8885 13.6941 32.8878ZM29.2531 21.9417C29.2531 21.9417 29.2519 21.9412 29.2512 21.941C29.2521 21.9412 29.2533 21.9419 29.2538 21.9412C29.2535 21.9414 29.2533 21.9414 29.2531 21.9417Z" fill="url(#paint0_linear_418_1079)"/>
<path d="M11.3513 20.9776C10.7595 20.5609 9.96519 20.6371 9.44742 21.2063C8.85086 21.8642 8.85086 22.9316 9.44742 23.5913L13.9048 28.5066C14.5013 29.1645 15.4693 29.1645 16.0675 28.5066L26.6127 16.8779C27.2092 16.22 27.2092 15.1526 26.6127 14.4929C26.0965 13.9237 25.3006 13.8475 24.7088 14.2642L15.8263 24.0594C15.1445 24.8112 14.9467 24.9425 14.2649 24.1888L11.3513 20.9776Z" fill="white"/>
<path d="M16.0691 19.6299C15.4774 19.2132 14.683 19.2895 14.1653 19.8587C13.5687 20.5165 13.5687 21.584 14.1653 22.2436L14.9998 23.1639L17.1368 20.8073L16.0675 19.6281L16.0691 19.6299ZM18.7754 27.3256L19.8463 28.5066C20.4428 29.1645 21.4108 29.1645 22.009 28.5066L32.5526 16.8779C33.1491 16.22 33.1491 15.1526 32.5526 14.4929C32.0364 13.9237 31.2405 13.8475 30.6503 14.2642L21.7662 24.0594C21.6038 24.2385 21.4687 24.3821 21.3481 24.4885L18.7754 27.3256Z" fill="white"/>
</g>
<defs>
<linearGradient id="paint0_linear_418_1079" x1="20.5" y1="1" x2="20.5" y2="43" gradientUnits="userSpaceOnUse">
<stop stop-color="#FA350C"/>
<stop offset="1" stop-color="#E32B05"/>
</linearGradient>
<clipPath id="clip0_418_1079">
<rect width="42" height="46" fill="white"/>
</clipPath>
</defs>
</svg>
