<svg width="336" height="115" viewBox="0 0 336 115" fill="none" xmlns="http://www.w3.org/2000/svg">
<path d="M87.8512 44.1389C87.3441 40.6759 86.4206 37.3323 85.0795 34.1093L82.4917 28.9052C78.4877 22.1592 73.0709 16.9452 66.2406 13.2635C61.5763 10.7463 56.6231 9.24358 51.3815 8.75595C49.2294 8.48213 47.0881 8.39596 44.9575 8.49686L39.367 9.16012C29.8411 11.1123 21.9249 15.8402 15.6193 23.3438C15.1278 23.9313 14.6358 24.5253 14.1426 25.1264C14.0821 25.2 14.0392 25.2818 14.014 25.3734C13.9808 25.4962 13.9309 25.6074 13.865 25.7067C12.7029 27.1008 11.6668 28.7148 10.7567 30.5476C9.8112 32.2673 8.97825 34.1589 8.25679 36.2217C7.53158 38.2449 6.96716 40.3546 6.56409 42.55C4.44098 55.1449 7.31235 67.0825 15.1278 76.907C16.1457 78.1866 16.85 79.0244 17.2418 79.4215C25.5869 87.8579 33.9089 96.3187 42.2089 104.804C42.3375 104.938 42.5219 104.998 42.6886 105.07C44.4429 106.893 47.6064 107.01 49.7847 106.153C51.7208 105.367 53.004 103.769 54.7615 101.927L61.0714 95.512L66.8109 89.6594C69.6978 86.7539 72.5745 83.8248 75.4422 80.8735C77.2024 79.0626 78.5151 77.5992 79.3807 76.4848C84.1935 70.2798 87.081 63.1487 88.0441 55.0914C88.1824 53.9432 88.2076 52.8698 88.1203 51.8722C88.518 49.385 88.2135 46.6234 87.8512 44.1389ZM33.0582 36.7269C33.062 36.7269 33.0614 36.7318 33.0646 36.7339C33.0582 36.7307 33.0518 36.7258 33.0454 36.7301C33.0491 36.7279 33.0534 36.7263 33.0582 36.7269ZM30.2914 80.3438L30.2957 80.3449L30.2983 80.3466C30.2962 80.3454 30.294 80.3443 30.2914 80.3438ZM31.4609 83.0214L31.4641 83.0225C31.4679 83.0241 31.4711 83.0257 31.4743 83.028C31.47 83.0252 31.4657 83.023 31.4609 83.0214ZM67.207 57.4254L67.2027 57.4237C67.2049 57.4243 67.2086 57.4243 67.2086 57.4243L67.207 57.4254Z" fill="url(#paint0_linear_382_1354)"/>
<path d="M26.0797 49.1949C24.7202 48.2375 22.8952 48.4127 21.7057 49.7204C20.3351 51.2318 20.3351 53.6843 21.7057 55.1998L31.9462 66.4925C33.3168 68.0039 35.5407 68.0039 36.915 66.4925L61.142 39.7761C62.5126 38.2647 62.5126 35.8123 61.142 34.2968C59.9561 32.9891 58.1275 32.8139 56.768 33.7713L36.3608 56.2753C34.7945 58.0026 34.3401 58.3041 32.7737 56.5727L26.0797 49.1949Z" fill="white"/>
<path d="M36.9186 46.0988C35.5591 45.1414 33.7341 45.3166 32.5446 46.6243C31.174 48.1357 31.174 50.5882 32.5446 52.1036L34.4619 54.218L39.3716 48.8038L36.9149 46.0947L36.9186 46.0988ZM43.136 63.7793L45.5964 66.4925C46.967 68.0039 49.1909 68.0039 50.5652 66.4925L74.7884 39.7761C76.159 38.2647 76.159 35.8123 74.7884 34.2968C73.6026 32.9891 71.7739 32.8139 70.4181 33.7713L50.0074 56.2753C49.6342 56.6867 49.3239 57.0167 49.0469 57.2612L43.136 63.7793Z" fill="white"/>
<path d="M102.301 62.9746V62.4232L103.459 61.9821C104.231 61.688 104.709 61.3388 104.892 60.9345C105.113 60.4934 105.223 59.9052 105.223 59.17V30.3876C105.223 29.6524 105.113 29.0642 104.892 28.6231C104.672 28.182 104.194 27.8328 103.459 27.5755L102.301 27.1344V26.583H116.361V27.1344L115.369 27.5755C114.67 27.8328 114.193 28.2004 113.935 28.6783C113.678 29.1194 113.549 29.7075 113.549 30.4427V61.8718H122.041C123.401 61.8718 124.393 61.541 125.018 60.8793C125.68 60.2177 126.305 59.2619 126.893 58.0121L129.043 53.3805H129.595L129.098 62.9746H102.301ZM139.687 32.7585C138.437 32.7585 137.371 32.3726 136.489 31.6006C135.644 30.7919 135.221 29.781 135.221 28.568C135.221 27.3182 135.644 26.3073 136.489 25.5353C137.371 24.7634 138.437 24.3774 139.687 24.3774C140.937 24.3774 141.985 24.7634 142.83 25.5353C143.676 26.3073 144.098 27.3182 144.098 28.568C144.098 29.781 143.676 30.7919 142.83 31.6006C141.985 32.3726 140.937 32.7585 139.687 32.7585ZM133.181 62.9746V62.4232L133.953 62.2027C134.688 61.9821 135.184 61.6513 135.442 61.2102C135.736 60.7691 135.883 60.1809 135.883 59.4457V42.1873C135.883 41.4153 135.736 40.8456 135.442 40.478C135.184 40.0736 134.688 39.7979 133.953 39.6509L133.181 39.4855V38.9341L143.271 35.6809L143.823 36.2323L143.657 44.062V59.5009C143.657 60.236 143.786 60.8242 144.043 61.2653C144.337 61.7064 144.834 62.0372 145.532 62.2578L146.083 62.4232V62.9746H133.181ZM159.166 63.8017C157.365 63.8017 155.748 63.5811 154.314 63.14C152.88 62.7357 151.557 62.221 150.344 61.5961L150.399 55.0346H150.951L152.825 58.3429C153.634 59.8133 154.516 60.9161 155.472 61.6513C156.465 62.3497 157.714 62.6989 159.221 62.6989C160.986 62.6989 162.401 62.3129 163.467 61.541C164.57 60.7323 165.121 59.6663 165.121 58.3429C165.121 57.1299 164.735 56.1374 163.963 55.3654C163.191 54.5935 161.758 53.8951 159.663 53.2702L157.347 52.5534C155.104 51.8917 153.34 50.8624 152.053 49.4656C150.767 48.0687 150.124 46.3594 150.124 44.3377C150.124 41.9116 151.079 39.8531 152.991 38.1621C154.902 36.4712 157.641 35.6257 161.206 35.6257C162.64 35.6257 163.982 35.7912 165.232 36.122C166.518 36.4161 167.75 36.8756 168.926 37.5005L168.595 43.4555H168.044L166.114 40.0369C165.415 38.8238 164.717 37.9783 164.019 37.5005C163.357 36.9858 162.346 36.7285 160.986 36.7285C159.736 36.7285 158.56 37.0777 157.457 37.7762C156.354 38.4746 155.803 39.4671 155.803 40.7537C155.803 42.0035 156.262 42.996 157.181 43.7312C158.137 44.4663 159.534 45.1464 161.372 45.7713L163.853 46.4881C166.5 47.2968 168.393 48.418 169.532 49.8516C170.672 51.2484 171.242 52.9393 171.242 54.9243C171.242 57.6078 170.176 59.7582 168.044 61.3756C165.948 62.993 162.989 63.8017 159.166 63.8017ZM185.222 63.8017C182.869 63.8017 181.031 63.2135 179.708 62.0372C178.422 60.861 177.778 58.9862 177.778 56.4131V37.5556H173.974V37.0042L175.297 36.7837C176.437 36.5263 177.411 36.1588 178.219 35.6809C179.065 35.203 179.892 34.5597 180.701 33.751L185.222 28.7334H185.773L185.608 36.4528H191.784V37.5556H185.553V57.4056C185.553 58.6922 185.829 59.6663 186.38 60.3279C186.968 60.9896 187.703 61.3204 188.585 61.3204C189.357 61.3204 190.037 61.1366 190.626 60.7691C191.214 60.3647 191.802 59.8317 192.39 59.17L192.941 59.7214C192.206 60.9712 191.195 61.9637 189.909 62.6989C188.622 63.4341 187.06 63.8017 185.222 63.8017ZM195.559 62.9746V62.4232L196.662 62.0372C197.397 61.8167 197.875 61.4859 198.095 61.0448C198.353 60.6036 198.481 60.0155 198.481 59.2803V30.3876C198.481 29.6524 198.353 29.0642 198.095 28.6231C197.838 28.182 197.342 27.8328 196.606 27.5755L195.559 27.1344V26.583H208.958C214.435 26.583 218.386 27.5939 220.812 29.6156C223.275 31.6006 224.507 34.2289 224.507 37.5005C224.507 39.5957 223.992 41.5256 222.963 43.29C221.97 45.0177 220.316 46.3962 218 47.4255C215.684 48.4547 212.56 48.9693 208.627 48.9693H206.752V59.1149C206.752 60.5485 207.469 61.4859 208.902 61.927L210.557 62.4232V62.9746H195.559ZM206.752 47.8666H208.847C210.648 47.8666 212.119 47.5725 213.258 46.9843C214.398 46.3962 215.243 45.3669 215.795 43.8966C216.346 42.4262 216.622 40.3861 216.622 37.7762C216.622 35.1295 216.309 33.071 215.684 31.6006C215.096 30.1302 214.214 29.1194 213.038 28.568C211.862 27.9798 210.391 27.6858 208.627 27.6858H206.752V47.8666ZM227.513 62.9746V62.4232L228.34 62.2027C229.075 61.9821 229.572 61.6513 229.829 61.2102C230.123 60.7691 230.27 60.1993 230.27 59.5009V42.2424C230.27 41.4337 230.123 40.8456 229.829 40.478C229.572 40.0736 229.075 39.7979 228.34 39.6509L227.513 39.4303V38.8789L236.997 35.6809L237.548 36.2323L238.045 40.9742V41.4153C238.559 40.3861 239.221 39.4487 240.03 38.6032C240.875 37.721 241.794 37.0042 242.787 36.4528C243.816 35.9014 244.827 35.6257 245.819 35.6257C247.216 35.6257 248.282 36.0117 249.017 36.7837C249.752 37.5556 250.12 38.5297 250.12 39.706C250.12 40.9558 249.752 41.93 249.017 42.6284C248.319 43.29 247.473 43.6209 246.481 43.6209C244.937 43.6209 243.577 42.8489 242.401 41.305L242.29 41.1948C241.923 40.6801 241.5 40.4044 241.022 40.3677C240.544 40.2942 240.103 40.5147 239.699 41.0294C239.331 41.3602 239.019 41.7645 238.761 42.2424C238.541 42.6835 238.32 43.1981 238.1 43.7863V59.17C238.1 60.6404 238.743 61.5594 240.03 61.927L241.794 62.4232V62.9746H227.513ZM265.933 35.6257C268.322 35.6257 270.362 36.122 272.053 37.1145C273.744 38.0702 275.031 39.3936 275.913 41.0845C276.832 42.7387 277.291 44.6318 277.291 46.7638C277.291 47.1681 277.273 47.5909 277.236 48.032C277.199 48.4363 277.126 48.8039 277.016 49.1348H260.584C260.621 53.1048 261.319 55.972 262.68 57.7364C264.076 59.4641 266.135 60.3279 268.855 60.3279C270.693 60.3279 272.182 60.0339 273.321 59.4457C274.461 58.8576 275.527 57.9937 276.519 56.8542L277.071 57.3504C275.931 59.3722 274.406 60.9529 272.494 62.0924C270.62 63.2319 268.359 63.8017 265.712 63.8017C263.102 63.8017 260.786 63.2503 258.765 62.1475C256.743 61.008 255.162 59.3906 254.023 57.2953C252.883 55.2 252.313 52.7004 252.313 49.7964C252.313 46.7822 252.975 44.2274 254.298 42.1321C255.622 40.0001 257.313 38.3827 259.371 37.2799C261.467 36.1771 263.654 35.6257 265.933 35.6257ZM265.767 36.7285C264.701 36.7285 263.782 37.0594 263.01 37.721C262.275 38.3459 261.687 39.4855 261.246 41.1396C260.842 42.757 260.621 45.0545 260.584 48.032H270.013C270.381 44.0252 270.234 41.1396 269.572 39.3752C268.91 37.6107 267.642 36.7285 265.767 36.7285ZM290.681 63.8017C288.88 63.8017 287.262 63.5811 285.829 63.14C284.395 62.7357 283.072 62.221 281.859 61.5961L281.914 55.0346H282.465L284.34 58.3429C285.149 59.8133 286.031 60.9161 286.987 61.6513C287.979 62.3497 289.229 62.6989 290.736 62.6989C292.501 62.6989 293.916 62.3129 294.982 61.541C296.085 60.7323 296.636 59.6663 296.636 58.3429C296.636 57.1299 296.25 56.1374 295.478 55.3654C294.706 54.5935 293.273 53.8951 291.177 53.2702L288.861 52.5534C286.619 51.8917 284.855 50.8624 283.568 49.4656C282.282 48.0687 281.638 46.3594 281.638 44.3377C281.638 41.9116 282.594 39.8531 284.505 38.1621C286.417 36.4712 289.156 35.6257 292.721 35.6257C294.155 35.6257 295.496 35.7912 296.746 36.122C298.033 36.4161 299.264 36.8756 300.441 37.5005L300.11 43.4555H299.558L297.629 40.0369C296.93 38.8238 296.232 37.9783 295.533 37.5005C294.872 36.9858 293.861 36.7285 292.501 36.7285C291.251 36.7285 290.075 37.0777 288.972 37.7762C287.869 38.4746 287.318 39.4671 287.318 40.7537C287.318 42.0035 287.777 42.996 288.696 43.7312C289.652 44.4663 291.049 45.1464 292.887 45.7713L295.368 46.4881C298.015 47.2968 299.908 48.418 301.047 49.8516C302.187 51.2484 302.756 52.9393 302.756 54.9243C302.756 57.6078 301.69 59.7582 299.558 61.3756C297.463 62.993 294.504 63.8017 290.681 63.8017ZM315.799 63.8017C313.998 63.8017 312.381 63.5811 310.947 63.14C309.514 62.7357 308.19 62.221 306.977 61.5961L307.032 55.0346H307.584L309.458 58.3429C310.267 59.8133 311.149 60.9161 312.105 61.6513C313.098 62.3497 314.347 62.6989 315.855 62.6989C317.619 62.6989 319.034 62.3129 320.1 61.541C321.203 60.7323 321.754 59.6663 321.754 58.3429C321.754 57.1299 321.368 56.1374 320.596 55.3654C319.825 54.5935 318.391 53.8951 316.296 53.2702L313.98 52.5534C311.737 51.8917 309.973 50.8624 308.686 49.4656C307.4 48.0687 306.757 46.3594 306.757 44.3377C306.757 41.9116 307.712 39.8531 309.624 38.1621C311.535 36.4712 314.274 35.6257 317.84 35.6257C319.273 35.6257 320.615 35.7912 321.865 36.122C323.151 36.4161 324.383 36.8756 325.559 37.5005L325.228 43.4555H324.677L322.747 40.0369C322.048 38.8238 321.35 37.9783 320.652 37.5005C319.99 36.9858 318.979 36.7285 317.619 36.7285C316.369 36.7285 315.193 37.0777 314.09 37.7762C312.987 38.4746 312.436 39.4671 312.436 40.7537C312.436 42.0035 312.895 42.996 313.814 43.7312C314.77 44.4663 316.167 45.1464 318.005 45.7713L320.486 46.4881C323.133 47.2968 325.026 48.418 326.165 49.8516C327.305 51.2484 327.875 52.9393 327.875 54.9243C327.875 57.6078 326.809 59.7582 324.677 61.3756C322.581 62.993 319.622 63.8017 315.799 63.8017Z" fill="#111111"/>
<path d="M109.964 90.2209H104.868V75.1831H110.067C111.56 75.1831 112.842 75.4841 113.914 76.0862C114.991 76.6834 115.818 77.5425 116.396 78.6635C116.974 79.7845 117.262 81.1258 117.262 82.6873C117.262 84.2538 116.971 85.5999 116.389 86.7258C115.811 87.8517 114.976 88.7157 113.885 89.3178C112.798 89.9199 111.491 90.2209 109.964 90.2209ZM107.592 87.8639H109.832C110.879 87.8639 111.753 87.673 112.453 87.2912C113.153 86.9045 113.679 86.3293 114.032 85.5657C114.384 84.7971 114.56 83.8377 114.56 82.6873C114.56 81.537 114.384 80.5824 114.032 79.8237C113.679 79.06 113.158 78.4898 112.468 78.1128C111.782 77.731 110.931 77.5401 109.912 77.5401H107.592V87.8639ZM122.575 75.1831V90.2209H119.851V75.1831H122.575ZM125.525 90.2209V75.1831H131.164C132.319 75.1831 133.289 75.3838 134.072 75.7852C134.86 76.1866 135.455 76.7495 135.856 77.474C136.262 78.1936 136.465 79.0331 136.465 79.9926C136.465 80.9569 136.26 81.794 135.849 82.5038C135.442 83.2087 134.843 83.7545 134.05 84.1412C133.257 84.523 132.283 84.7139 131.127 84.7139H127.111V82.4524H130.76C131.436 82.4524 131.989 82.3594 132.42 82.1733C132.85 81.9824 133.169 81.7059 133.374 81.3436C133.585 80.9765 133.69 80.5261 133.69 79.9926C133.69 79.459 133.585 79.0037 133.374 78.6268C133.164 78.245 132.843 77.9562 132.412 77.7604C131.982 77.5597 131.426 77.4593 130.746 77.4593H128.249V90.2209H125.525ZM133.293 83.4069L137.016 90.2209H133.976L130.32 83.4069H133.293ZM138.973 90.2209V75.1831H148.754V77.4667H141.697V81.5492H148.247V83.8328H141.697V87.9374H148.812V90.2209H138.973ZM164.404 80.2569H161.658C161.58 79.8065 161.436 79.4076 161.225 79.06C161.015 78.7076 160.753 78.409 160.439 78.1642C160.126 77.9195 159.769 77.7359 159.367 77.6135C158.971 77.4862 158.543 77.4226 158.082 77.4226C157.265 77.4226 156.54 77.6282 155.909 78.0394C155.278 78.4457 154.783 79.0429 154.426 79.831C154.068 80.6142 153.89 81.5712 153.89 82.702C153.89 83.8524 154.068 84.8216 154.426 85.6097C154.788 86.3929 155.282 86.9853 155.909 87.3867C156.54 87.7832 157.262 87.9814 158.075 87.9814C158.525 87.9814 158.946 87.9227 159.338 87.8052C159.735 87.6828 160.089 87.5041 160.403 87.2692C160.721 87.0342 160.988 86.7454 161.203 86.4027C161.423 86.0601 161.575 85.6685 161.658 85.2279L164.404 85.2426C164.302 85.9573 164.079 86.6279 163.736 87.2545C163.399 87.8811 162.956 88.4342 162.407 88.9139C161.859 89.3888 161.218 89.7608 160.483 90.03C159.749 90.2944 158.934 90.4265 158.038 90.4265C156.717 90.4265 155.537 90.1206 154.499 89.5087C153.461 88.8968 152.644 88.0132 152.047 86.858C151.45 85.7027 151.151 84.3174 151.151 82.702C151.151 81.0817 151.452 79.6964 152.054 78.546C152.656 77.3908 153.476 76.5072 154.514 75.8953C155.552 75.2834 156.726 74.9775 158.038 74.9775C158.875 74.9775 159.654 75.095 160.373 75.3299C161.093 75.5649 161.734 75.91 162.297 76.3653C162.86 76.8156 163.323 77.3688 163.685 78.0247C164.052 78.6758 164.292 79.4198 164.404 80.2569ZM166.238 77.4667V75.1831H178.236V77.4667H173.588V90.2209H170.886V77.4667H166.238ZM193.32 82.702C193.32 84.3223 193.017 85.7101 192.41 86.8653C191.807 88.0157 190.985 88.8968 189.942 89.5087C188.905 90.1206 187.727 90.4265 186.411 90.4265C185.094 90.4265 183.914 90.1206 182.871 89.5087C181.834 88.8919 181.011 88.0083 180.404 86.858C179.802 85.7027 179.501 84.3174 179.501 82.702C179.501 81.0817 179.802 79.6964 180.404 78.546C181.011 77.3908 181.834 76.5072 182.871 75.8953C183.914 75.2834 185.094 74.9775 186.411 74.9775C187.727 74.9775 188.905 75.2834 189.942 75.8953C190.985 76.5072 191.807 77.3908 192.41 78.546C193.017 79.6964 193.32 81.0817 193.32 82.702ZM190.581 82.702C190.581 81.5614 190.403 80.5996 190.045 79.8163C189.693 79.0282 189.203 78.4335 188.577 78.0321C187.95 77.6258 187.228 77.4226 186.411 77.4226C185.593 77.4226 184.871 77.6258 184.244 78.0321C183.618 78.4335 183.126 79.0282 182.769 79.8163C182.416 80.5996 182.24 81.5614 182.24 82.702C182.24 83.8426 182.416 84.8069 182.769 85.595C183.126 86.3783 183.618 86.973 184.244 87.3793C184.871 87.7807 185.593 87.9814 186.411 87.9814C187.228 87.9814 187.95 87.7807 188.577 87.3793C189.203 86.973 189.693 86.3783 190.045 85.595C190.403 84.8069 190.581 83.8426 190.581 82.702ZM195.896 90.2209V75.1831H201.535C202.69 75.1831 203.659 75.3838 204.442 75.7852C205.231 76.1866 205.825 76.7495 206.227 77.474C206.633 78.1936 206.836 79.0331 206.836 79.9926C206.836 80.9569 206.631 81.794 206.219 82.5038C205.813 83.2087 205.213 83.7545 204.42 84.1412C203.627 84.523 202.653 84.7139 201.498 84.7139H197.482V82.4524H201.131C201.806 82.4524 202.36 82.3594 202.79 82.1733C203.221 81.9824 203.539 81.7059 203.745 81.3436C203.955 80.9765 204.061 80.5261 204.061 79.9926C204.061 79.459 203.955 79.0037 203.745 78.6268C203.534 78.245 203.214 77.9562 202.783 77.7604C202.352 77.5597 201.797 77.4593 201.116 77.4593H198.62V90.2209H195.896ZM203.664 83.4069L207.387 90.2209H204.347L200.69 83.4069H203.664ZM207.73 75.1831H210.807L214.485 81.8356H214.632L218.311 75.1831H221.388L215.917 84.6111V90.2209H213.2V84.6111L207.73 75.1831ZM232.822 90.4412C231.794 90.4412 230.91 90.2552 230.171 89.8832C229.432 89.5112 228.862 89.0094 228.46 88.3779C228.064 87.7416 227.866 87.0244 227.866 86.2265C227.866 85.6244 227.988 85.0908 228.233 84.6258C228.482 84.1608 228.825 83.73 229.261 83.3335C229.701 82.937 230.21 82.5429 230.788 82.1513L233.453 80.3377C233.845 80.0831 234.141 79.8139 234.342 79.53C234.548 79.246 234.65 78.9132 234.65 78.5314C234.65 78.2083 234.513 77.9023 234.239 77.6135C233.97 77.3247 233.598 77.1803 233.123 77.1803C232.805 77.1803 232.523 77.2562 232.279 77.4079C232.039 77.5548 231.85 77.7481 231.713 77.988C231.581 78.2279 231.515 78.4824 231.515 78.7516C231.515 79.0796 231.606 79.4125 231.787 79.7502C231.973 80.088 232.213 80.438 232.506 80.8003C232.805 81.1625 233.123 81.5468 233.461 81.9531L240.517 90.2209H237.639L231.779 83.5097C231.344 83.0006 230.923 82.4989 230.516 82.0045C230.115 81.51 229.785 80.9961 229.525 80.4625C229.271 79.924 229.143 79.3415 229.143 78.7149C229.143 78.0051 229.307 77.3712 229.635 76.8132C229.963 76.2502 230.421 75.8072 231.008 75.4841C231.601 75.1611 232.293 74.9995 233.086 74.9995C233.879 74.9995 234.56 75.1562 235.128 75.4694C235.695 75.7827 236.134 76.1988 236.442 76.7177C236.75 77.2366 236.905 77.802 236.905 78.4139C236.905 79.1237 236.728 79.76 236.376 80.323C236.023 80.881 235.534 81.3877 234.907 81.8429L231.867 84.0678C231.368 84.43 231.011 84.7971 230.795 85.1692C230.58 85.5363 230.472 85.8496 230.472 86.109C230.472 86.5055 230.573 86.8653 230.773 87.1884C230.974 87.5115 231.256 87.7709 231.618 87.9667C231.985 88.1576 232.413 88.2531 232.903 88.2531C233.441 88.2531 233.972 88.1332 234.496 87.8933C235.02 87.6486 235.497 87.301 235.928 86.8506C236.359 86.4003 236.701 85.8618 236.956 85.2352C237.21 84.6038 237.338 83.9038 237.338 83.1352H239.621C239.621 84.0849 239.516 84.9122 239.306 85.6171C239.095 86.3171 238.823 86.9094 238.491 87.394C238.158 87.8737 237.805 88.258 237.433 88.5468C237.316 88.63 237.203 88.7132 237.095 88.7965C236.988 88.8797 236.875 88.9629 236.758 89.0461C236.229 89.5258 235.61 89.8783 234.9 90.1035C234.195 90.3286 233.502 90.4412 232.822 90.4412ZM247.285 90.2209V75.1831H250.009V87.9374H256.633V90.2209H247.285ZM261.721 75.1831V90.2209H258.997V75.1831H261.721ZM272.843 79.317C272.775 78.6758 272.486 78.1765 271.977 77.8191C271.473 77.4618 270.817 77.2831 270.009 77.2831C269.441 77.2831 268.954 77.3688 268.548 77.5401C268.142 77.7114 267.831 77.9439 267.615 78.2376C267.4 78.5314 267.29 78.8667 267.285 79.2436C267.285 79.5569 267.356 79.8286 267.498 80.0586C267.645 80.2887 267.843 80.4845 268.093 80.6461C268.342 80.8027 268.619 80.9349 268.922 81.0426C269.226 81.1503 269.532 81.2408 269.84 81.3142L271.25 81.6667C271.818 81.7989 272.364 81.9775 272.887 82.2027C273.416 82.4279 273.889 82.7118 274.305 83.0545C274.726 83.3971 275.058 83.8108 275.303 84.2954C275.548 84.78 275.67 85.3478 275.67 85.9989C275.67 86.88 275.445 87.6559 274.995 88.3265C274.544 88.9923 273.893 89.5136 273.042 89.8905C272.195 90.2626 271.169 90.4486 269.965 90.4486C268.795 90.4486 267.779 90.2675 266.918 89.9052C266.061 89.543 265.391 89.0143 264.906 88.3192C264.426 87.6241 264.167 86.7772 264.128 85.7786H266.808C266.847 86.3024 267.008 86.7381 267.292 87.0856C267.576 87.4332 267.946 87.6926 268.401 87.8639C268.861 88.0353 269.375 88.1209 269.943 88.1209C270.535 88.1209 271.054 88.0328 271.5 87.8566C271.95 87.6755 272.303 87.4258 272.557 87.1076C272.812 86.7846 272.941 86.4076 272.946 85.9769C272.941 85.5853 272.826 85.2622 272.601 85.0076C272.376 84.7482 272.06 84.5328 271.654 84.3615C271.252 84.1852 270.783 84.0286 270.244 83.8915L268.533 83.451C267.295 83.1328 266.316 82.6506 265.596 82.0045C264.881 81.3534 264.524 80.4894 264.524 79.4125C264.524 78.5265 264.764 77.7506 265.244 77.0848C265.728 76.4191 266.387 75.9027 267.219 75.5355C268.051 75.1635 268.993 74.9775 270.046 74.9775C271.113 74.9775 272.048 75.1635 272.851 75.5355C273.658 75.9027 274.292 76.4142 274.753 77.0702C275.213 77.7212 275.45 78.4702 275.465 79.317H272.843ZM277.438 77.4667V75.1831H289.436V77.4667H284.788V90.2209H282.086V77.4667H277.438ZM294.473 75.1831V90.2209H291.749V75.1831H294.473ZM309.781 75.1831V90.2209H307.358L300.272 79.9779H300.147V90.2209H297.423V75.1831H299.861L306.939 85.4335H307.071V75.1831H309.781ZM322.823 79.9852C322.701 79.5887 322.532 79.2338 322.317 78.9205C322.106 78.6023 321.852 78.3307 321.553 78.1055C321.259 77.8803 320.922 77.7114 320.54 77.5988C320.158 77.4814 319.742 77.4226 319.292 77.4226C318.484 77.4226 317.764 77.6258 317.133 78.0321C316.501 78.4384 316.004 79.0356 315.642 79.8237C315.285 80.6069 315.106 81.5614 315.106 82.6873C315.106 83.823 315.285 84.7849 315.642 85.573C316 86.3611 316.496 86.9608 317.133 87.372C317.769 87.7783 318.508 87.9814 319.35 87.9814C320.114 87.9814 320.775 87.8346 321.333 87.5409C321.896 87.2472 322.329 86.8311 322.632 86.2926C322.936 85.7492 323.088 85.1129 323.088 84.3835L323.705 84.479H319.622V82.3496H325.724V84.1559C325.724 85.4433 325.45 86.5569 324.901 87.4968C324.353 88.4367 323.599 89.1611 322.64 89.6702C321.68 90.1744 320.579 90.4265 319.336 90.4265C317.95 90.4265 316.734 90.1157 315.686 89.494C314.644 88.8674 313.829 87.979 313.241 86.8286C312.659 85.6734 312.367 84.3027 312.367 82.7167C312.367 81.5027 312.539 80.4184 312.881 79.4639C313.229 78.5093 313.714 77.6992 314.335 77.0334C314.957 76.3628 315.686 75.8537 316.523 75.5062C317.36 75.1537 318.271 74.9775 319.255 74.9775C320.087 74.9775 320.863 75.0999 321.582 75.3446C322.302 75.5845 322.941 75.9271 323.499 76.3726C324.062 76.8181 324.524 77.3467 324.887 77.9586C325.249 78.5705 325.486 79.246 325.599 79.9852H322.823Z" fill="#444444"/>
<defs>
<linearGradient id="paint0_linear_382_1354" x1="47.0973" y1="8.45605" x2="47.0973" y2="106.668" gradientUnits="userSpaceOnUse">
<stop stop-color="#FA350C"/>
<stop offset="1" stop-color="#E32B05"/>
</linearGradient>
</defs>
</svg>
